<svg id="YorkU-Omni-Logo" xmlns="http://www.w3.org/2000/svg" viewBox="0 0 848 255"><defs><style>.cls-1{fill:#231f20;}.cls-2{fill:#ce0e2d;}.cls-3{fill:none;stroke:#333;stroke-linecap:round;stroke-miterlimit:10;stroke-width:1px;}</style></defs><title>YorkU-Omni-Logo</title><path class="cls-1" d="M75.76,147.43c0,3.36-2.12,4.2-3.87,4.2s-3.88-.84-3.88-4.2v-6.15h1.37v6.49c0,1.37.63,2.81,2.51,2.81s2.5-1.44,2.5-2.81v-6.49h1.37Z"/><path class="cls-1" d="M90.45,141.28h1.82l4.26,7.08a12.21,12.21,0,0,1,.71,1.39h.08c0-.34-.08-.82-.08-1.27v-7.2h1.37v10.14H96.78l-4.24-7.17a10.89,10.89,0,0,1-.72-1.39h-.07c0,.34.07.82.07,1.27v7.29H90.45Z"/><path class="cls-1" d="M114.69,141.28v10.14h-1.37V141.28Z"/><path class="cls-1" d="M132.39,148.93c.15.41.25.82.36,1.23h.07c.11-.41.21-.82.36-1.23l2.65-7.65h1.42l-3.62,10.14h-1.78l-3.53-10.14h1.51Z"/><path class="cls-1" d="M150.86,141.28h6.38v1.05h-5v3.31H157v1.05h-4.76v3.67h5.16v1.06h-6.53Z"/><path class="cls-1" d="M171.57,141.28h3.65c1.82,0,3.25.85,3.25,2.72a2.49,2.49,0,0,1-1.94,2.59l2.54,4.83h-1.64l-2.19-4.59h-2.3v4.59h-1.37Zm1.37,4.5h2.16c1.55,0,2-.9,2-1.68,0-1.7-1.53-1.77-2.14-1.77h-2Z"/><path class="cls-1" d="M193.56,149a2.11,2.11,0,0,0,2.21,1.57,1.87,1.87,0,0,0,2-1.77,1.63,1.63,0,0,0-1.11-1.61l-2.57-1.14a2.33,2.33,0,0,1-1.57-2.22c0-2,1.8-2.78,3.32-2.78s2.74.5,3.25,1.86l-1.35.42a1.78,1.78,0,0,0-1.9-1.22c-1.31,0-1.86.71-1.86,1.64s.71,1.31,1.4,1.59l1.9.8a2.73,2.73,0,0,1,1.95,2.63c0,1-.61,2.85-3.63,2.85a3.23,3.23,0,0,1-3.41-2.15Z"/><path class="cls-1" d="M214.93,141.28v10.14h-1.37V141.28Z"/><path class="cls-1" d="M231.66,142.42h-3.08v-1.14h7.53v1.14H233v9h-1.37Z"/><path class="cls-1" d="M249.75,141.28h6.37v1.05h-5v3.31h4.75v1.05h-4.75v3.67h5.15v1.06h-6.52Zm3.39-2.68h1.61l-2.11,2h-1Z"/><path class="cls-1" d="M75.78,167.3c0,3.36-2.12,4.2-3.88,4.2S68,170.66,68,167.3v-6.15H69.4v6.49c0,1.37.63,2.81,2.5,2.81s2.51-1.44,2.51-2.81v-6.49h1.37Z"/><path class="cls-1" d="M90.38,161.15h1.81l4.27,7.07a12.31,12.31,0,0,1,.71,1.4h.08c0-.34-.08-.83-.08-1.27v-7.2h1.37v10.14H96.71l-4.25-7.17a12.21,12.21,0,0,1-.71-1.39h-.08c0,.34.08.82.08,1.26v7.3H90.38Z"/><path class="cls-1" d="M114.53,161.15v10.14h-1.37V161.15Z"/><path class="cls-1" d="M132.14,168.79c.15.42.25.83.36,1.24h.07a12.29,12.29,0,0,1,.36-1.24l2.65-7.64H137l-3.62,10.14H131.6l-3.53-10.14h1.51Z"/><path class="cls-1" d="M150.52,161.15h6.38v1h-5v3.3h4.76v1.06h-4.76v3.67h5.16v1.06h-6.53Z"/><path class="cls-1" d="M171.14,161.15h3.65c1.82,0,3.25.85,3.25,2.72a2.49,2.49,0,0,1-1.93,2.59l2.53,4.83H177l-2.19-4.59h-2.3v4.59h-1.37Zm1.37,4.5h2.16c1.55,0,2-.9,2-1.68,0-1.7-1.53-1.77-2.14-1.77h-2Z"/><path class="cls-1" d="M193,168.88a2.11,2.11,0,0,0,2.21,1.57,1.88,1.88,0,0,0,2.06-1.77,1.61,1.61,0,0,0-1.12-1.61l-2.56-1.14a2.34,2.34,0,0,1-1.58-2.22c0-2,1.8-2.78,3.32-2.78s2.74.5,3.25,1.85l-1.34.43a1.8,1.8,0,0,0-1.91-1.22c-1.31,0-1.86.71-1.86,1.64s.71,1.3,1.4,1.59l1.9.8a2.73,2.73,0,0,1,2,2.63c0,1-.62,2.85-3.64,2.85a3.26,3.26,0,0,1-3.41-2.15Z"/><path class="cls-1" d="M214.32,161.15v10.14H213V161.15Z"/><path class="cls-1" d="M231,162.29h-3.08v-1.14h7.54v1.14h-3.09v9H231Z"/><path class="cls-1" d="M251.72,167.14l-3.76-6h1.64l2.38,4c.17.27.3.57.44.85h0c.13-.28.28-.58.44-.85l2.4-4h1.55l-3.75,6v4.15h-1.37Z"/><rect class="cls-1" x="68.1" y="155.46" width="188.53" height="0.64"/><path class="cls-1" d="M77.52,126.89H79c3.07,0,3.74-1.11,3.74-4.16v-9.26L71,93.31c-2.39-4.11-3.19-4.63-6.19-4.63h-.55V86.92c2.63.06,5.21.17,7.72.17s5.21-.11,7.79-.17v1.76h-1.1c-1.29,0-2.27.41-2.27,1.87A9.33,9.33,0,0,0,77.71,94l9.07,15.65,8.46-15.47c.49-.88,1.66-3.11,1.66-4.17s-.74-1.34-2.39-1.34H93.34V86.92c2.51.06,4.17.17,6.07.17s4.11-.11,6.07-.17v1.76H104c-2.52,0-3.07.76-5,4.16l-10.85,19.4v10.49c0,3.46,1.35,4.16,3.74,4.16h1.22v1.76c-2.57-.06-5.21-.18-7.78-.18s-5.52.12-7.79.18Z"/><path class="cls-1" d="M132.64,86.16c12.2,0,22.87,9.43,22.87,21.62,0,10.32-8.34,21.63-23,21.63-13.25,0-22.81-9.55-22.81-21.16C109.65,95.18,120.56,86.16,132.64,86.16Zm-.18,2.46c-8.59,0-16.68,5-16.68,18.64,0,9.49,6.5,19.92,17.05,19.92,11.34,0,16.55-8,16.55-18.75C149.38,99,143.19,88.62,132.46,88.62Z"/><path class="cls-1" d="M165.14,126.89h1.1c2.82,0,4-1,4-4.81V93.48c0-3.81-1.23-4.8-4-4.8h-1.1V86.92c2.14.06,5.09.17,7.85.17,4.1,0,7-.17,9.74-.17,10.86,0,12.82,8.15,12.82,10.84,0,7.68-5.64,10-8.71,11l8.22,13c3.37,5.28,4.35,5.63,9.32,5.92v1.23c-1.17,0-2.27.06-3.43.06-5.4,0-7.91-.64-11.16-5.74L182.61,112c-1.41-2.17-2.2-2.28-6.93-2.4v11.08c0,5.56,1,6.21,3.5,6.21H181v1.76c-2.7-.06-5.28-.18-8-.18s-5.71.12-7.85.18ZM175.68,107a14.55,14.55,0,0,0,4.17.41c5.52,0,10.06-2.4,10.06-8.5a9.84,9.84,0,0,0-10.36-9.72,37.33,37.33,0,0,0-3.87.23Z"/><path class="cls-1" d="M213.94,126.89h1.11c2.82,0,4-1,4-4.81V93.48c0-3.81-1.22-4.8-4-4.8h-1.11V86.92c2.15.06,5.09.17,7.85.17s5.27-.11,8-.17v1.76H228c-2.45,0-3.49.64-3.49,6.21v13.77l13.43-14.3c.61-.64,2.94-3,2.94-4.16s-.86-1.52-2-1.52h-1.11V86.92c2.27.06,4.85.17,7.24.17s4.84-.11,7.29-.17v1.76h-1.1c-3,0-4,.52-7.66,4.16l-11.84,11.9,15.82,17.7c3.44,3.86,5.21,4.45,7.73,4.45h.92v1.76c-2-.06-4-.18-5.95-.18s-4,.12-6,.18c-.3-1.7-.49-2.58-4-6.39l-12.57-13.77-3.19,3.22v9c0,5.56,1,6.21,3.49,6.21h1.78v1.76c-2.7-.06-5.27-.18-8-.18s-5.7.12-7.85.18Z"/><path class="cls-2" d="M334.79,160.52c-15.84,0-29.55-9.35-29.55-29.81V82.07H269.85v89.25h93.37V138.76C360.41,151.73,350.54,160.52,334.79,160.52Z"/><path class="cls-2" d="M334.79,142.25c8.5,0,11.1-7.13,11.1-14.11V82.07H324.17v46.07C324.17,135.41,326.87,142.25,334.79,142.25Z"/><path d="M526.22,134.56a5.68,5.68,0,1,0-2,7.79,5.68,5.68,0,0,0,2-7.79"/><path d="M525.07,155.19a4.34,4.34,0,1,0-1.51,5.95,4.35,4.35,0,0,0,1.51-5.95"/><path d="M526.23,114.61a5.68,5.68,0,1,0-2,7.79,5.7,5.7,0,0,0,2-7.79"/><path d="M525.07,95.34a4.34,4.34,0,1,0-1.51,6,4.35,4.35,0,0,0,1.51-6"/><path d="M546.27,123.41a7,7,0,1,0-2.44,9.62,7,7,0,0,0,2.44-9.62"/><path d="M545.12,144.05a5.68,5.68,0,1,0-2,7.78,5.68,5.68,0,0,0,2-7.78"/><path d="M544,163.94a4.34,4.34,0,1,0-1.51,5.95,4.34,4.34,0,0,0,1.51-5.95"/><path d="M545.12,104.14a5.68,5.68,0,1,0-2,7.79,5.69,5.69,0,0,0,2-7.79"/><path d="M544,85.62a4.34,4.34,0,1,0-1.51,5.95A4.34,4.34,0,0,0,544,85.62"/><path d="M507.29,145a4.34,4.34,0,1,0-1.51,5.95,4.34,4.34,0,0,0,1.51-5.95"/><path d="M507.29,125.76a4.34,4.34,0,1,0-1.51,6,4.35,4.35,0,0,0,1.51-6"/><path d="M507.29,106.55a4.34,4.34,0,1,0-1.52,6,4.34,4.34,0,0,0,1.52-6"/><path d="M554.33,119.44a5.68,5.68,0,1,0,2-7.79,5.68,5.68,0,0,0-2,7.79"/><path d="M555.48,98.81a4.34,4.34,0,1,0,1.51-6,4.35,4.35,0,0,0-1.51,6"/><path d="M554.32,139.39a5.68,5.68,0,1,0,2-7.79,5.7,5.7,0,0,0-2,7.79"/><path d="M555.48,158.66a4.34,4.34,0,1,0,1.51-5.95,4.35,4.35,0,0,0-1.51,5.95"/><path d="M573.26,109a4.34,4.34,0,1,0,1.51-6,4.34,4.34,0,0,0-1.51,6"/><path d="M573.26,128.24a4.34,4.34,0,1,0,1.51-6,4.35,4.35,0,0,0-1.51,6"/><path d="M573.26,147.45a4.34,4.34,0,1,0,1.52-5.95,4.34,4.34,0,0,0-1.52,5.95"/><path d="M772.9,95.58a6,6,0,1,0-6-6,6,6,0,0,0,6,6"/><polygon points="763.52 144.7 763.7 144.7 763.52 144.69 763.52 144.7"/><polygon points="775 102.21 762.89 105.34 763.16 107.32 769.17 106.42 769.17 141.83 763.64 142.5 764.06 142.55 763.88 144.69 773.47 144.52 783.6 144.7 783.78 142.55 777.69 141.83 777.69 102.03 775 102.21"/><polygon points="716.82 144.7 716.99 144.7 716.82 144.69 716.82 144.7"/><path d="M763.64,142.5l-6.12-.67V115.12c0-9.78-2-13.81-11.75-13.81L731,110.72l-.27-8.6-2.42.09-12.1,3.13.27,2.07,6.09-1v35.41l-5.57.68.38,0-.18,2.14,9.77-.17,8.42.18.18-2.15-4.57-.72V113.32l3-1.79c3.32-2.15,6-3.85,9.14-3.85,3.77,0,5.74,1.79,5.74,7v27.16l-4.39.72.27,2.15,8.69-.18,10,.17-.27-2.14Z"/><polygon points="763.7 144.7 763.88 144.7 763.88 144.69 763.7 144.7"/><polygon points="763.64 142.5 763.25 142.55 763.52 144.69 763.7 144.7 763.88 144.69 764.06 142.55 763.64 142.5"/><polygon points="763.64 142.5 763.25 142.55 763.52 144.69 763.7 144.7 763.88 144.69 764.06 142.55 763.64 142.5"/><path d="M717,142.51l-6.17-.68V115.47c0-9.86-2-14.16-11.74-14.16L685,110.72c-.54-6.45-3.85-9.41-11.56-9.41l-14,9.32-.18-8.51-2.51.09-12,3.13.27,2.07,6.09-1v35.41l-5.91.72.18,2.15,10-.18,8.43.18.17-2.15-4.39-.72V113.41l3-2c2.78-1.88,5.92-3.76,8.79-3.76,3.4,0,5.28,1.79,5.28,7v27.16l-4.12.72.18,2.15,8.52-.18,8,.18.26-2.15-4.21-.72V113.41l3-2c2.78-1.88,5.92-3.76,8.7-3.76,3.49,0,5.37,1.79,5.37,7v27.16l-4.39.72.27,2.15,8.79-.18,10,.17-.18-2.14Z"/><polygon points="717 144.7 717.18 144.7 717.18 144.69 717 144.7"/><polygon points="716.98 142.51 716.64 142.55 716.82 144.69 717 144.7 717.18 144.69 717.36 142.55 716.98 142.51"/><polygon points="716.98 142.51 716.64 142.55 716.82 144.69 717 144.7 717.18 144.69 717.36 142.55 716.98 142.51"/><path d="M624.75,142.73c-7.53,0-12.73-8.79-12.73-20.53,0-10.67,3.58-17.66,10.49-17.66,7.35,0,12.82,7.8,12.82,20.53,0,10.49-3.68,17.66-10.58,17.66m.09-41.42c-13.36,2.69-22,9.59-22,23.31,0,12.28,8.07,21.34,19.55,21.34,13.45-2.51,22-9.6,22-23.31,0-12.28-8-21.34-19.54-21.34"/><line class="cls-3" x1="431.22" y1="76.25" x2="431.22" y2="178.75"/></svg>