<svg xmlns="http://www.w3.org/2000/svg" viewBox="0 0 749.4 114.27"><defs><style>.cls-1{fill:none;stroke:#fff;stroke-linecap:round;stroke-miterlimit:10;stroke-width:1.42px;}.cls-2{font-size:42px;font-family:Arial-BoldMT, Arial;font-weight:700;}.cls-2,.cls-4{fill:#fff;}.cls-3{letter-spacing:-0.02em;}</style></defs><title>YorkU-Omni-Logo-text</title><g id="YorkU-Omni-Logo"><line class="cls-1" x1="434.77" y1="0.77" x2="434.77" y2="113.5"/><text class="cls-2" transform="translate(497.3 42.05)">YORK <tspan x="0" y="50.4">UNIVERSIT</tspan><tspan class="cls-3" x="224.03" y="50.4">Y</tspan></text><path class="cls-4" d="M56.71,266.43a7.46,7.46,0,1,0-2.6,10.23,7.47,7.47,0,0,0,2.6-10.23" transform="translate(-21.23 -199.36)"/><path class="cls-4" d="M55.2,293.53a5.7,5.7,0,1,0-2,7.82,5.71,5.71,0,0,0,2-7.82" transform="translate(-21.23 -199.36)"/><path class="cls-4" d="M56.71,240.22a7.46,7.46,0,1,0-2.6,10.23,7.47,7.47,0,0,0,2.6-10.23" transform="translate(-21.23 -199.36)"/><path class="cls-4" d="M55.2,214.92a5.7,5.7,0,1,0-2,7.81,5.71,5.71,0,0,0,2-7.81" transform="translate(-21.23 -199.36)"/><path class="cls-4" d="M83,251.78a9.22,9.22,0,1,0-3.21,12.65A9.23,9.23,0,0,0,83,251.78" transform="translate(-21.23 -199.36)"/><path class="cls-4" d="M81.53,278.89a7.46,7.46,0,1,0-2.6,10.23,7.47,7.47,0,0,0,2.6-10.23" transform="translate(-21.23 -199.36)"/><path class="cls-4" d="M80,305a5.7,5.7,0,1,0-2,7.81A5.71,5.71,0,0,0,80,305" transform="translate(-21.23 -199.36)"/><path class="cls-4" d="M81.53,226.48a7.46,7.46,0,1,0-2.6,10.23,7.47,7.47,0,0,0,2.6-10.23" transform="translate(-21.23 -199.36)"/><path class="cls-4" d="M80,202.15A5.7,5.7,0,1,0,78,210a5.71,5.71,0,0,0,2-7.81" transform="translate(-21.23 -199.36)"/><path class="cls-4" d="M31.83,280.1a5.7,5.7,0,1,0-2,7.81,5.71,5.71,0,0,0,2-7.81" transform="translate(-21.23 -199.36)"/><path class="cls-4" d="M31.83,254.87a5.7,5.7,0,1,0-2,7.81,5.69,5.69,0,0,0,2-7.81" transform="translate(-21.23 -199.36)"/><path class="cls-4" d="M31.83,229.64a5.7,5.7,0,1,0-2,7.81,5.69,5.69,0,0,0,2-7.81" transform="translate(-21.23 -199.36)"/><path class="cls-4" d="M93.62,246.57a7.46,7.46,0,1,0,2.59-10.23,7.47,7.47,0,0,0-2.59,10.23" transform="translate(-21.23 -199.36)"/><path class="cls-4" d="M95.13,219.47a5.7,5.7,0,1,0,2-7.82,5.7,5.7,0,0,0-2,7.82" transform="translate(-21.23 -199.36)"/><path class="cls-4" d="M93.62,272.78a7.46,7.46,0,1,0,2.59-10.23,7.47,7.47,0,0,0-2.59,10.23" transform="translate(-21.23 -199.36)"/><path class="cls-4" d="M95.13,298.08a5.7,5.7,0,1,0,2-7.81,5.7,5.7,0,0,0-2,7.81" transform="translate(-21.23 -199.36)"/><path class="cls-4" d="M118.49,232.9a5.7,5.7,0,1,0,2-7.81,5.72,5.72,0,0,0-2,7.81" transform="translate(-21.23 -199.36)"/><path class="cls-4" d="M118.49,258.13a5.7,5.7,0,1,0,2-7.81,5.7,5.7,0,0,0-2,7.81" transform="translate(-21.23 -199.36)"/><path class="cls-4" d="M118.49,283.36a5.7,5.7,0,1,0,2-7.81,5.7,5.7,0,0,0-2,7.81" transform="translate(-21.23 -199.36)"/><path class="cls-4" d="M380.71,215.23a7.94,7.94,0,1,0-7.93-7.93,7.93,7.93,0,0,0,7.93,7.93" transform="translate(-21.23 -199.36)"/><polygon class="cls-4" points="347.15 80.38 347.38 80.38 347.15 80.38 347.15 80.38"/><polygon class="cls-4" points="362.23 24.57 346.33 28.69 346.68 31.28 354.57 30.11 354.57 76.62 347.31 77.5 347.86 77.56 347.63 80.38 360.23 80.15 373.53 80.38 373.77 77.56 365.76 76.62 365.76 24.34 362.23 24.57"/><polygon class="cls-4" points="285.81 80.38 286.04 80.38 285.81 80.38 285.81 80.38"/><path class="cls-4" d="M368.54,276.86l-8-.88V240.89c0-12.83-2.59-18.13-15.43-18.13l-19.42,12.36-.36-11.3-3.18.12-15.89,4.12.35,2.7,8-1.29V276l-7.33.89.5.05-.24,2.82,12.84-.23,11.07.24.23-2.83-6-.94V238.54l4-2.36c4.36-2.82,7.89-5.06,12-5.06,4.95,0,7.54,2.35,7.54,9.18V276l-5.77.94.35,2.83,11.42-.24,13.19.23-.35-2.82Z" transform="translate(-21.23 -199.36)"/><polygon class="cls-4" points="347.39 80.38 347.63 80.38 347.63 80.38 347.39 80.38"/><polygon class="cls-4" points="347.31 77.5 346.8 77.56 347.15 80.38 347.38 80.38 347.63 80.38 347.86 77.56 347.31 77.5"/><polygon class="cls-4" points="347.31 77.5 346.8 77.56 347.15 80.38 347.38 80.38 347.63 80.38 347.86 77.56 347.31 77.5"/><path class="cls-4" d="M307.25,276.87l-8.1-.89V241.36c0-13-2.59-18.6-15.42-18.6l-18.49,12.36c-.71-8.48-5.06-12.36-15.19-12.36L231.68,235l-.23-11.18-3.3.11-15.78,4.13.36,2.7,8-1.29V276l-7.77.94.24,2.83,13.07-.24,11.07.24.23-2.83L231.8,276V238.65l3.89-2.59c3.65-2.47,7.77-4.94,11.54-4.94,4.47,0,6.94,2.35,6.94,9.18V276l-5.41.94.23,2.83,11.19-.24,10.48.24.35-2.83-5.53-.94V238.65l3.88-2.59c3.65-2.47,7.77-4.94,11.42-4.94,4.6,0,7.07,2.35,7.07,9.18V276l-5.77.94.35,2.83,11.54-.24,13.07.23-.23-2.82Z" transform="translate(-21.23 -199.36)"/><polygon class="cls-4" points="286.04 80.38 286.28 80.38 286.28 80.38 286.04 80.38"/><polygon class="cls-4" points="286.02 77.5 285.57 77.56 285.81 80.38 286.04 80.38 286.28 80.38 286.51 77.56 286.02 77.5"/><polygon class="cls-4" points="286.02 77.5 285.57 77.56 285.81 80.38 286.04 80.38 286.28 80.38 286.51 77.56 286.02 77.5"/><path class="cls-4" d="M186.11,277.16c-9.89,0-16.72-11.54-16.72-27,0-14,4.71-23.19,13.78-23.19,9.66,0,16.84,10.24,16.84,27,0,13.78-4.83,23.2-13.9,23.2m.12-54.4c-17.54,3.53-28.85,12.6-28.85,30.61,0,16.13,10.6,28,25.67,28,17.67-3.3,28.85-12.6,28.85-30.62,0-16.13-10.48-28-25.67-28" transform="translate(-21.23 -199.36)"/></g></svg>